# xmcd
#
# Track frame offsets: 
#        150
#        28220
#        40114
#        50895
#        68805
#        87677
#        110732
#        124610
#
# Disc length: 1906 seconds
#
# Revision: 5
# Processed by: cddbd v1.5.2PL0 Copyright (c) Steve Scherf et al.
# Submitted via: ExactAudioCopy v0.99pb5
#
DISCID=75077008
DTITLE=Johnny Cash - Bitter Tears - Ballads Of The American Indian
DYEAR=1964
DGENRE=Country
TTITLE0=As Long As The Grass Shall Grow
TTITLE1=Apache Tears
TTITLE2=Custer
TTITLE3=The Talking Leaves
TTITLE4=The Ballad Of Ira Hayes
TTITLE5=Drums
TTITLE6=White Girl
TTITLE7=The Vanishing Race
EXTD=
EXTT0=
EXTT1=
EXTT2=
EXTT3=
EXTT4=
EXTT5=
EXTT6=
EXTT7=
PLAYORDER=
